<svg width="26" height="26" viewBox="0 0 26 26" fill="none" xmlns="http://www.w3.org/2000/svg">
<rect width="26" height="26" fill="#F5F5F5"/>
<g id="AI_Login Page_1" clip-path="url(#clip0_0_1)">
<rect width="1440" height="1923" transform="translate(-900 -503)" fill="white"/>
<rect id="Rectangle 469" x="-183" y="-503" width="723" height="1020" fill="black"/>
<g id="Rectangle 479" filter="url(#filter0_d_0_1)">
<rect x="-115.23" y="-32.7178" width="258.81" height="233.436" rx="33.8313" fill="white"/>
<rect x="-113.962" y="-31.4491" width="256.272" height="230.899" rx="32.5627" stroke="#EFEFEF" stroke-width="2.53735"/>
</g>
<g id="Rectangle 480" filter="url(#filter1_d_0_1)">
<rect x="-115.23" y="-32.7178" width="258.81" height="233.436" rx="33.8313" fill="white"/>
<rect x="-113.962" y="-31.4491" width="256.272" height="230.899" rx="32.5627" stroke="#EFEFEF" stroke-width="2.53735"/>
</g>
<rect id="Rectangle 493" x="-27.6016" y="-13.2651" width="81.0055" height="71.9241" rx="13.0771" fill="#CDE6D9"/>
<rect id="Rectangle 494" x="-22.8789" y="-9.26953" width="71.9241" height="44.3169" rx="8.35482" fill="white"/>
<path id="image 98 (Traced)" fill-rule="evenodd" clip-rule="evenodd" d="M10.0197 0.625943C9.4684 0.774564 9.10329 0.989834 8.66954 1.42192C7.94119 2.14749 7.79194 2.61403 7.79194 4.16529V5.22868H5.59533C3.58728 5.22868 3.3621 5.23805 2.97224 5.33772C2.73769 5.3977 2.4174 5.51523 2.26043 5.59886C1.85772 5.81346 1.28017 6.40189 1.07672 6.80486C0.71558 7.52018 0.734546 7.05199 0.734546 15.2443C0.734546 23.3471 0.719274 22.9352 1.04524 23.6241C1.25271 24.0626 1.81113 24.632 2.27014 24.8732C3.00427 25.2589 2.62813 25.2396 9.43278 25.2396C14.8004 25.2396 15.5918 25.2292 15.7326 25.1564C15.9285 25.0551 16.0182 24.8993 16.0182 24.6608C16.0182 24.4332 15.9329 24.2734 15.7458 24.1509C15.6084 24.0609 15.1816 24.0526 9.36579 24.0268L3.13296 23.9993L2.83969 23.8369C2.51224 23.6555 2.28491 23.4213 2.09949 23.0744L1.9751 22.8416L1.95983 19.0742C1.95145 17.002 1.96386 15.3153 1.9874 15.3258C2.01094 15.3364 2.1543 15.4103 2.30592 15.4902C2.83804 15.7703 3.11063 15.8198 4.30459 15.8529L5.4211 15.8839V16.7883C5.4211 18.2269 5.36651 18.1834 7.17287 18.1834C8.61247 18.1834 8.7561 18.1594 8.90568 17.8935C8.9515 17.812 8.98205 17.4464 8.9955 16.819L9.01585 15.8681H13.085H17.1541L17.1745 16.819C17.1879 17.4464 17.2185 17.812 17.2643 17.8935C17.4139 18.1594 17.5575 18.1834 18.9971 18.1834C20.8035 18.1834 20.7489 18.2269 20.7489 16.7883V15.8839L21.8654 15.8529C23.0593 15.8198 23.3319 15.7703 23.864 15.4902C24.0157 15.4103 24.159 15.3364 24.1826 15.3258C24.2061 15.3153 24.2185 17.002 24.2101 19.0742L24.1949 22.8416L24.0705 23.0744C23.8851 23.4213 23.6577 23.6555 23.3303 23.8369L23.037 23.9993L20.3328 24.0268C17.8786 24.0519 17.615 24.0633 17.4815 24.1509C17.2945 24.2735 17.2091 24.4333 17.2091 24.6608C17.2091 24.8993 17.2989 25.0551 17.4948 25.1564C17.6317 25.2272 18.0457 25.2396 20.2659 25.2396C23.1001 25.2396 23.1826 25.2323 23.8271 24.9236C24.244 24.7239 24.9196 24.0484 25.1193 23.6315C25.4514 22.9387 25.4354 23.362 25.4354 15.2443C25.4354 7.03634 25.4546 7.50094 25.0877 6.79979C24.8767 6.39659 24.2963 5.80492 23.9095 5.59886C23.7526 5.51523 23.4323 5.3977 23.1977 5.33772C22.8079 5.23805 22.5827 5.22868 20.5746 5.22868H18.378V4.16529C18.378 2.61976 18.2301 2.15874 17.4972 1.42037C17.0567 0.976548 16.7134 0.775942 16.1377 0.626053C15.6902 0.50946 10.4519 0.509405 10.0197 0.625943ZM16.2124 1.90764C16.5594 2.09303 16.7936 2.32031 16.975 2.64771L17.1375 2.94093L17.1552 4.08481L17.173 5.22868H13.089H9.00493L9.00526 4.19506C9.00543 3.62659 9.0309 3.0702 9.06188 2.95873C9.19344 2.48509 9.7148 1.95306 10.1829 1.81475C10.281 1.78581 11.5711 1.76795 13.1677 1.77351C15.9715 1.78322 15.9803 1.78366 16.2124 1.90764ZM23.2608 6.61616C23.6044 6.79753 23.911 7.10629 24.0725 7.43375C24.1934 7.67878 24.195 7.71599 24.2101 10.4831L24.2254 13.2844L24.0786 13.6114C23.9094 13.9883 23.5657 14.3329 23.1846 14.5078C22.9545 14.6134 22.8096 14.6282 21.8378 14.6457L20.7489 14.6653V13.7204C20.7489 12.2477 20.7944 12.2846 18.9735 12.2857C17.5911 12.2866 17.515 12.2999 17.3082 12.5782C17.2032 12.7194 17.191 12.8214 17.1742 13.6945L17.1559 14.6553H13.085H9.01403L8.99572 13.6945C8.97901 12.8214 8.96678 12.7194 8.8618 12.5782C8.65493 12.2999 8.57889 12.2866 7.19647 12.2857C5.37555 12.2846 5.4211 12.2477 5.4211 13.7204V14.6653L4.33216 14.6457C3.36034 14.6282 3.2155 14.6134 2.98541 14.5078C2.60426 14.3329 2.26054 13.9883 2.09139 13.6114L1.94461 13.2844L1.95983 10.4831C1.97499 7.69835 1.97582 7.68033 2.1001 7.42823C2.30989 7.00249 2.74535 6.63733 3.21566 6.49273C3.29147 6.46942 7.76989 6.45453 13.1677 6.45966L22.9819 6.46903L23.2608 6.61616ZM7.79194 15.2342V16.9706H7.21301H6.63409V15.2342V13.4977H7.21301H7.79194V15.2342ZM19.5359 15.2342V16.9706H18.957H18.378V15.2342V13.4977H18.957H19.5359V15.2342Z" fill="black"/>
</g>
<defs>
<filter id="filter0_d_0_1" x="-135.529" y="-41.1756" width="299.407" height="274.034" filterUnits="userSpaceOnUse" color-interpolation-filters="sRGB">
<feFlood flood-opacity="0" result="BackgroundImageFix"/>
<feColorMatrix in="SourceAlpha" type="matrix" values="0 0 0 0 0 0 0 0 0 0 0 0 0 0 0 0 0 0 127 0" result="hardAlpha"/>
<feMorphology radius="8.45784" operator="erode" in="SourceAlpha" result="effect1_dropShadow_0_1"/>
<feOffset dy="11.841"/>
<feGaussianBlur stdDeviation="14.3783"/>
<feComposite in2="hardAlpha" operator="out"/>
<feColorMatrix type="matrix" values="0 0 0 0 0 0 0 0 0 0 0 0 0 0 0 0 0 0 0.1 0"/>
<feBlend mode="normal" in2="BackgroundImageFix" result="effect1_dropShadow_0_1"/>
<feBlend mode="normal" in="SourceGraphic" in2="effect1_dropShadow_0_1" result="shape"/>
</filter>
<filter id="filter1_d_0_1" x="-135.529" y="-41.1756" width="299.407" height="274.034" filterUnits="userSpaceOnUse" color-interpolation-filters="sRGB">
<feFlood flood-opacity="0" result="BackgroundImageFix"/>
<feColorMatrix in="SourceAlpha" type="matrix" values="0 0 0 0 0 0 0 0 0 0 0 0 0 0 0 0 0 0 127 0" result="hardAlpha"/>
<feMorphology radius="8.45784" operator="erode" in="SourceAlpha" result="effect1_dropShadow_0_1"/>
<feOffset dy="11.841"/>
<feGaussianBlur stdDeviation="14.3783"/>
<feComposite in2="hardAlpha" operator="out"/>
<feColorMatrix type="matrix" values="0 0 0 0 0 0 0 0 0 0 0 0 0 0 0 0 0 0 0.1 0"/>
<feBlend mode="normal" in2="BackgroundImageFix" result="effect1_dropShadow_0_1"/>
<feBlend mode="normal" in="SourceGraphic" in2="effect1_dropShadow_0_1" result="shape"/>
</filter>
<clipPath id="clip0_0_1">
<rect width="1440" height="1923" fill="white" transform="translate(-900 -503)"/>
</clipPath>
</defs>
</svg>
