<svg width="30" height="20" viewBox="0 0 30 20" fill="none" xmlns="http://www.w3.org/2000/svg">
<rect width="30" height="20" fill="#F5F5F5"/>
<g id="AI_Login Page_1" clip-path="url(#clip0_0_1)">
<rect width="1440" height="1923" transform="translate(-976 -506)" fill="white"/>
<rect id="Rectangle 469" x="-259" y="-506" width="723" height="1020" fill="black"/>
<g id="Rectangle 479" filter="url(#filter0_d_0_1)">
<rect x="-191.23" y="-35.7178" width="258.81" height="233.436" rx="33.8313" fill="white"/>
<rect x="-189.962" y="-34.4491" width="256.272" height="230.899" rx="32.5627" stroke="#EFEFEF" stroke-width="2.53735"/>
</g>
<g id="Rectangle 480" filter="url(#filter1_d_0_1)">
<rect x="-191.23" y="-35.7178" width="258.81" height="233.436" rx="33.8313" fill="white"/>
<rect x="-189.962" y="-34.4491" width="256.272" height="230.899" rx="32.5627" stroke="#EFEFEF" stroke-width="2.53735"/>
</g>
<rect id="Rectangle 491" x="-18.9648" y="-16.2651" width="67.9284" height="71.9241" rx="13.0771" fill="#E4D6EE"/>
<rect id="Rectangle 492" x="-14.2383" y="-12.2695" width="58.4838" height="44.3169" rx="8.35482" fill="white"/>
<path id="image 99 (Traced)" fill-rule="evenodd" clip-rule="evenodd" d="M9.64835 0.13326C9.36033 0.251274 9.36771 0.169691 9.35046 3.41658C9.33292 6.72807 9.33485 6.7501 9.65573 6.89789C9.88042 7.00139 10.0157 6.97563 10.1939 6.79554L10.3598 6.62784V3.86958V1.11133H19.5538H28.7478V6.96323V12.8151H22.1051H15.4624L15.3231 12.956C15.1475 13.1334 15.1381 13.4294 15.3014 13.6393L15.419 13.7905H22.4266H29.4342L29.5734 13.6386L29.7126 13.4868V6.95956C29.7126 3.36953 29.6967 0.390457 29.6774 0.339396C29.5744 0.0681431 29.9778 0.0784129 19.5424 0.0822568C14.1642 0.0842648 9.71186 0.107213 9.64835 0.13326ZM24.0892 2.18911C23.9515 2.31344 23.9049 2.40363 23.9049 2.54562C23.9049 2.68762 23.9515 2.7778 24.0892 2.90213L24.2734 3.06856L25.4089 3.05095L26.5445 3.03328L26.6814 2.87229C26.7576 2.78257 26.8182 2.63799 26.8182 2.54562C26.8182 2.45325 26.7576 2.30868 26.6814 2.21895L26.5445 2.05796L25.4089 2.04029L24.2734 2.02268L24.0892 2.18911ZM19.347 3.06151C19.14 3.1459 19.043 3.34865 19.043 3.69667V4.01904L18.7167 4.09184C17.9076 4.27228 17.2539 4.78977 17.0826 5.38523C16.8216 6.29302 17.3783 6.97689 18.6457 7.30511L19.0146 7.40063L19.0306 8.13522L19.0465 8.86981L18.8887 8.83183C18.8019 8.81089 18.594 8.72718 18.4268 8.64577C18.1674 8.5195 18.1062 8.45776 18.0107 8.22524C17.8427 7.81669 17.5116 7.70287 17.2527 7.96465C16.7541 8.46866 17.7388 9.64713 18.7918 9.80674L19.0308 9.843L19.0533 10.2459C19.0722 10.5825 19.0975 10.6666 19.2076 10.7566C19.3541 10.8766 19.6144 10.8971 19.7893 10.8025C19.9429 10.7194 20.0646 10.4086 20.0646 10.0993C20.0646 9.85906 20.0735 9.84535 20.249 9.81592C20.6686 9.74558 21.0951 9.5305 21.4227 9.2239C21.8085 8.86286 21.9518 8.56252 21.9539 8.11067C21.9572 7.40976 21.4296 6.89095 20.4336 6.61556L20.0929 6.52141L20.077 5.79566C20.0683 5.39653 20.0715 5.06997 20.0841 5.06997C20.0967 5.06997 20.217 5.10921 20.3515 5.15718C20.6716 5.27135 20.9726 5.50697 20.9726 5.6434C20.9726 5.7952 21.198 6.03381 21.3826 6.07765C21.5064 6.10708 21.5715 6.07977 21.709 5.94081C21.9109 5.73669 21.9265 5.55052 21.7708 5.20376C21.5611 4.73704 20.8314 4.20395 20.2802 4.11485C20.071 4.08106 20.0646 4.07291 20.0642 3.84348C20.0636 3.41503 19.9649 3.17671 19.7503 3.08606C19.5322 2.99392 19.5151 2.99289 19.347 3.06151ZM19.043 5.73359C19.043 6.39468 19.0425 6.39709 18.9153 6.35986C18.6376 6.27856 18.2772 6.06634 18.1751 5.92389C18.075 5.78442 18.0737 5.76153 18.1566 5.59957C18.2719 5.3741 18.6965 5.11013 19.0004 5.0749C19.0239 5.07221 19.043 5.36859 19.043 5.73359ZM13.3393 6.32635C13.0528 6.46622 12.7335 6.76169 11.3249 8.19087L9.65108 9.88918H9.3874C8.62861 9.88918 7.47556 10.2568 6.79951 10.7142L6.3578 11.0131L6.11887 10.8289C5.47183 10.33 3.85703 9.98649 1.78973 9.90789C0.93157 9.87524 0.845872 9.88092 0.768177 9.97559C0.694738 10.065 0.681231 10.702 0.667837 14.7203L0.652344 19.3617L0.819539 19.5307C1.02215 19.7355 1.1978 19.7451 1.9319 19.5911C2.63139 19.4444 3.42082 19.1371 4.42087 18.6223L5.264 18.1883L9.07463 18.9227C11.1705 19.3266 13.0213 19.6693 13.1875 19.684C14.0888 19.764 16.2572 19.2912 17.0091 18.8507C17.6416 18.4801 21.8779 15.562 21.9871 15.4216C22.0534 15.3364 22.1077 15.2172 22.1077 15.1568C22.1077 14.9977 21.9538 14.7213 21.827 14.6527C21.7556 14.6141 20.5145 14.5937 18.2329 14.5937C14.9465 14.5937 14.7229 14.5872 14.3089 14.4802C13.264 14.21 12.8569 13.7638 12.8569 12.8888C12.8569 12.6 12.8833 12.5085 13.0237 12.3127C13.1155 12.1847 13.2563 12.0324 13.3368 11.9742C13.5688 11.8065 15.6949 9.09981 15.8211 8.8114C15.9128 8.60188 15.9302 8.46545 15.91 8.11417C15.878 7.55336 15.6458 7.08934 15.1786 6.65205C14.6187 6.12808 13.9779 6.01459 13.3393 6.32635ZM14.2798 7.26552C14.5623 7.45801 14.8015 7.88416 14.8282 8.24228L14.8504 8.54095L13.8565 9.80313C13.3099 10.4973 12.6843 11.263 12.4663 11.5047C11.9164 12.1143 11.8199 12.3221 11.7902 12.9611C11.7259 14.3431 12.3211 15.1152 13.8501 15.633C14.2398 15.765 14.3005 15.7681 17.0375 15.7974L19.8276 15.8271L18.275 16.8598C17.421 17.4278 16.6285 17.9413 16.5137 18.001C15.9282 18.3053 14.4811 18.6536 13.5947 18.7035C13.0824 18.7324 12.8734 18.6995 9.39495 18.0411C7.38163 17.66 5.70661 17.3416 5.67273 17.3335C5.63272 17.324 5.7645 16.4701 6.04816 14.9007C6.46943 12.5696 6.49197 12.473 6.67358 12.2174C7.1847 11.4979 8.27345 10.9944 9.53683 10.8934L10.0476 10.8525L11.8637 9.02918C12.8626 8.02633 13.7181 7.19203 13.7649 7.17511C13.9399 7.112 14.0942 7.13908 14.2798 7.26552ZM20.6926 7.8265C21.0245 8.06546 20.8523 8.49196 20.3359 8.71003C20.2199 8.75902 20.1114 8.79912 20.0947 8.79912C20.0781 8.79912 20.0646 8.51628 20.0646 8.17056V7.54206L20.2953 7.62433C20.4222 7.66959 20.601 7.76058 20.6926 7.8265ZM2.98184 11.0105C4.4682 11.1694 5.47898 11.3811 5.47898 11.5335C5.47898 11.9654 5.24192 13.6152 4.94033 15.2821C4.65498 16.8594 4.54936 17.336 4.47206 17.3952C4.16117 17.6333 2.61044 18.3248 2.01113 18.4927L1.61976 18.6024V14.7361V10.8699L1.88934 10.8962C2.03763 10.9106 2.52923 10.962 2.98184 11.0105Z" fill="black"/>
</g>
<defs>
<filter id="filter0_d_0_1" x="-211.529" y="-44.1756" width="299.407" height="274.034" filterUnits="userSpaceOnUse" color-interpolation-filters="sRGB">
<feFlood flood-opacity="0" result="BackgroundImageFix"/>
<feColorMatrix in="SourceAlpha" type="matrix" values="0 0 0 0 0 0 0 0 0 0 0 0 0 0 0 0 0 0 127 0" result="hardAlpha"/>
<feMorphology radius="8.45784" operator="erode" in="SourceAlpha" result="effect1_dropShadow_0_1"/>
<feOffset dy="11.841"/>
<feGaussianBlur stdDeviation="14.3783"/>
<feComposite in2="hardAlpha" operator="out"/>
<feColorMatrix type="matrix" values="0 0 0 0 0 0 0 0 0 0 0 0 0 0 0 0 0 0 0.1 0"/>
<feBlend mode="normal" in2="BackgroundImageFix" result="effect1_dropShadow_0_1"/>
<feBlend mode="normal" in="SourceGraphic" in2="effect1_dropShadow_0_1" result="shape"/>
</filter>
<filter id="filter1_d_0_1" x="-211.529" y="-44.1756" width="299.407" height="274.034" filterUnits="userSpaceOnUse" color-interpolation-filters="sRGB">
<feFlood flood-opacity="0" result="BackgroundImageFix"/>
<feColorMatrix in="SourceAlpha" type="matrix" values="0 0 0 0 0 0 0 0 0 0 0 0 0 0 0 0 0 0 127 0" result="hardAlpha"/>
<feMorphology radius="8.45784" operator="erode" in="SourceAlpha" result="effect1_dropShadow_0_1"/>
<feOffset dy="11.841"/>
<feGaussianBlur stdDeviation="14.3783"/>
<feComposite in2="hardAlpha" operator="out"/>
<feColorMatrix type="matrix" values="0 0 0 0 0 0 0 0 0 0 0 0 0 0 0 0 0 0 0.1 0"/>
<feBlend mode="normal" in2="BackgroundImageFix" result="effect1_dropShadow_0_1"/>
<feBlend mode="normal" in="SourceGraphic" in2="effect1_dropShadow_0_1" result="shape"/>
</filter>
<clipPath id="clip0_0_1">
<rect width="1440" height="1923" fill="white" transform="translate(-976 -506)"/>
</clipPath>
</defs>
</svg>
