<svg width="30" height="30" viewBox="0 0 30 30" fill="none" xmlns="http://www.w3.org/2000/svg">
<rect width="30" height="30" fill="#F5F5F5"/>
<g id="AI_Login Page_1" clip-path="url(#clip0_0_1)">
<rect width="1440" height="1923" transform="translate(-820 -501)" fill="white"/>
<rect id="Rectangle 469" x="-103" y="-501" width="723" height="1020" fill="black"/>
<g id="Rectangle 479" filter="url(#filter0_d_0_1)">
<rect x="-35.2305" y="-30.7178" width="258.81" height="233.436" rx="33.8313" fill="white"/>
<rect x="-33.9618" y="-29.4491" width="256.272" height="230.899" rx="32.5627" stroke="#EFEFEF" stroke-width="2.53735"/>
</g>
<g id="Rectangle 480" filter="url(#filter1_d_0_1)">
<rect x="-35.2305" y="-30.7178" width="258.81" height="233.436" rx="33.8313" fill="white"/>
<rect x="-33.9618" y="-29.4491" width="256.272" height="230.899" rx="32.5627" stroke="#EFEFEF" stroke-width="2.53735"/>
</g>
<rect id="Rectangle 485" x="-19.1602" y="-11.2651" width="67.9284" height="71.9241" rx="13.0771" fill="#F4F1C0"/>
<rect id="Rectangle 488" x="-14.4414" y="-7.26953" width="58.4838" height="44.3169" rx="8.35482" fill="white"/>
<path id="image 97 (Traced)" fill-rule="evenodd" clip-rule="evenodd" d="M14.7206 0.42422C14.4667 0.546904 14.4196 0.776204 14.4196 1.8891C14.4196 2.70411 14.4381 2.96134 14.5074 3.10742C14.6718 3.45384 15.0909 3.52594 15.3785 3.25724L15.5547 3.09254V1.8891V0.685653L15.3785 0.520959C15.191 0.345875 14.9546 0.311074 14.7206 0.42422ZM10.355 2.45568C10.1858 2.52403 9.99243 2.78762 9.99243 2.94988C9.99243 3.18559 10.1325 3.37532 10.7494 3.97546C11.2398 4.45257 11.3784 4.55737 11.5187 4.55737C11.7606 4.55737 11.945 4.45995 12.0547 4.27408C12.2583 3.9293 12.1378 3.69705 11.3706 2.95533C10.8263 2.42922 10.6433 2.33918 10.355 2.45568ZM19.1589 2.48611C18.9155 2.61475 18.0132 3.52509 17.9069 3.74928C17.7894 3.99692 17.8436 4.23121 18.0606 4.4139C18.253 4.57582 18.4404 4.59518 18.6651 4.47624C18.8469 4.38001 19.8283 3.39099 19.9189 3.21279C20.0227 3.00841 19.991 2.80925 19.8258 2.62787C19.6339 2.41719 19.3881 2.36496 19.1589 2.48611ZM14.6551 4.30343C14.4366 4.48737 14.3838 4.7203 14.5035 4.97265C14.6717 5.32708 15.0878 5.40224 15.3785 5.1307C15.5215 4.99701 15.5547 4.92105 15.5547 4.72768C15.5547 4.53432 15.5215 4.45836 15.3785 4.32466C15.1515 4.11256 14.891 4.10495 14.6551 4.30343ZM14.2493 6.40772C12.3514 6.63441 10.7601 7.32345 9.44829 8.48687C8.44457 9.377 7.62447 10.536 7.1792 11.6936L7.02198 12.1025L6.81862 11.9427C5.45125 10.8682 3.47595 11.5486 3.01405 13.2531C2.96791 13.4232 2.94991 13.7589 2.96382 14.1898C2.98266 14.7749 3.00537 14.9043 3.14022 15.1947C3.2253 15.378 3.29495 15.5464 3.29495 15.569C3.29495 15.5914 3.18637 15.6424 3.05372 15.6821C2.41179 15.8742 1.81049 16.2707 1.34751 16.807C0.684065 17.5755 0.459472 18.2846 0.457996 19.6151L0.457031 20.5084L0.622652 20.6938L0.788273 20.8792H2.50033H4.21239L4.37801 20.6938C4.68064 20.355 4.54278 19.8971 4.1012 19.7744C3.98553 19.7423 3.37373 19.7159 2.74155 19.7157L1.5922 19.7154L1.59254 19.4173C1.59379 18.2809 2.13344 17.3493 3.03499 16.9274C3.53424 16.6937 3.89755 16.6522 5.45176 16.6511L6.78558 16.6502L6.95206 17.2319C7.05127 17.5785 7.2749 18.123 7.50539 18.5794L7.89226 19.3452L4.52076 22.7237C2.32302 24.9261 1.10884 26.1834 1.03307 26.3356C0.840263 26.7228 0.768407 27.2496 0.851047 27.6698C0.942882 28.1366 1.08642 28.4103 1.42976 28.7734C2.12675 29.5105 3.24806 29.6309 4.1037 29.0605C4.26761 28.9512 5.25101 28.0093 6.28895 26.9675C8.14358 25.1059 8.17616 25.0692 8.17616 24.8437C8.17616 24.4588 7.82954 24.1903 7.45249 24.2833C7.35039 24.3085 6.62887 24.9858 5.36663 26.2413C3.31146 28.2855 3.23972 28.3418 2.79462 28.2613C2.14945 28.1446 1.78972 27.4487 2.06965 26.8588C2.11897 26.7549 3.60042 25.2287 5.36174 23.4671L8.56422 20.2644L9.14315 20.8106C10.4854 22.0772 11.9146 22.7933 13.7065 23.0975C14.4599 23.2254 16.0342 23.1831 16.7467 23.0158C18.5087 22.6022 19.9583 21.7715 21.1484 20.4934C21.9737 19.6071 22.7098 18.321 23.0291 17.2072L23.1887 16.6502L24.5226 16.6511C26.0768 16.6522 26.4401 16.6937 26.9393 16.9274C27.8409 17.3493 28.3805 18.2809 28.3818 19.4173L28.3821 19.7154L25.757 19.7157C24.133 19.7159 23.0518 19.7383 22.9217 19.7744C22.4801 19.8971 22.3422 20.355 22.6449 20.6938L22.8105 20.8792H25.9983H29.186L29.3517 20.6938L29.5173 20.5084L29.5163 19.6151C29.5148 18.2846 29.2903 17.5755 28.6268 16.807C28.1638 16.2707 27.5625 15.8742 26.9206 15.6821C26.788 15.6424 26.6794 15.5914 26.6794 15.569C26.6794 15.5464 26.749 15.378 26.8341 15.1947C26.969 14.9043 26.9917 14.7749 27.0105 14.1898C27.0422 13.2052 26.8662 12.6848 26.3146 12.1331C25.4468 11.2651 24.1198 11.1851 23.1557 11.9427L22.9523 12.1025L22.7951 11.6936C22.4736 10.8577 21.903 9.93727 21.2572 9.21264C20.0291 7.83474 18.3949 6.90045 16.5822 6.54006C16.0574 6.43566 14.6728 6.35714 14.2493 6.40772ZM16.3777 7.68787C18.6715 8.14357 20.5099 9.57161 21.5201 11.6822C22.0226 12.7323 22.2124 13.5972 22.2113 14.833C22.2095 16.8469 21.4695 18.5832 20.0142 19.9886C19.1831 20.7912 18.3009 21.3241 17.2147 21.68C13.1292 23.0187 8.77598 20.4783 7.88545 16.236C7.74565 15.57 7.71676 14.2732 7.8275 13.6324C7.9976 12.6479 8.45439 11.5105 8.99842 10.7171C10.6504 8.30759 13.5357 7.12322 16.3777 7.68787ZM14.1925 8.70675C11.6112 9.03841 9.49977 11.0269 8.97413 13.6214C8.30557 16.9208 10.5253 20.1878 13.8662 20.8218C14.4463 20.9318 15.5281 20.9318 16.1081 20.8218C19.449 20.1878 21.6687 16.9208 21.0002 13.6214C20.3539 10.4316 17.3947 8.29527 14.1925 8.70675ZM16.0098 9.92155C17.8514 10.2913 19.3617 11.7596 19.8234 13.629C19.9926 14.314 19.9914 15.3556 19.8206 15.9969C19.7017 16.4432 19.2352 17.4566 19.0269 17.7212L18.9209 17.8559L18.6622 17.5225C18.52 17.3391 18.3054 17.0961 18.1853 16.9825C17.9149 16.7267 17.3071 16.3145 16.9952 16.1756L16.7614 16.0714L16.955 15.7502C17.2577 15.2482 17.3291 14.9239 17.3051 14.1599C17.2863 13.5581 17.2682 13.4646 17.1039 13.1162C16.8703 12.621 16.4617 12.212 15.9657 11.977C15.611 11.809 15.5396 11.7958 14.9872 11.7958C14.4347 11.7958 14.3633 11.809 14.0086 11.977C13.5126 12.212 13.104 12.621 12.8704 13.1162C12.7061 13.4646 12.6881 13.5581 12.6692 14.1599C12.6453 14.9239 12.7166 15.2482 13.0193 15.7502L13.213 16.0714L12.9791 16.1756C12.6672 16.3145 12.0595 16.7267 11.7891 16.9825C11.669 17.0961 11.4544 17.3391 11.3121 17.5225L11.0535 17.8559L10.9474 17.7212C10.7391 17.4566 10.2726 16.4432 10.1537 15.9969C9.98295 15.3556 9.9817 14.314 10.1509 13.629C10.4304 12.4974 11.052 11.5461 11.979 10.8319C13.1011 9.96725 14.577 9.63389 16.0098 9.92155ZM5.74259 12.6498C6.06895 12.7648 6.39111 13.0862 6.49969 13.4049C6.6123 13.7355 6.61134 14.3438 6.49759 14.6776C6.38408 15.0108 6.00442 15.3698 5.67034 15.4598C5.09833 15.6139 4.49811 15.3439 4.21619 14.8058C4.09995 14.584 4.05715 13.8002 4.14371 13.4795C4.22987 13.1604 4.59443 12.7643 4.90251 12.6552C5.21463 12.5445 5.44013 12.5431 5.74259 12.6498ZM25.0483 12.6515C25.3815 12.7651 25.7402 13.1448 25.8306 13.4795C25.9172 13.8002 25.8744 14.584 25.7581 14.8058C25.363 15.56 24.427 15.7336 23.8121 15.1667C23.5128 14.8907 23.3874 14.5576 23.3874 14.0382C23.3874 13.5488 23.5106 13.1989 23.7732 12.9424C24.1366 12.5875 24.5702 12.4886 25.0483 12.6515ZM15.4701 13.0087C15.7667 13.1435 16.0442 13.4646 16.1262 13.7678C16.2104 14.0793 16.1674 14.8117 16.0521 15.0329C15.8363 15.4465 15.4472 15.6846 14.9872 15.6846C14.5271 15.6846 14.138 15.4465 13.9223 15.0329C13.8069 14.8117 13.764 14.0793 13.8481 13.7678C13.9796 13.2814 14.4762 12.9053 14.9872 12.9053C15.1276 12.9053 15.345 12.9518 15.4701 13.0087ZM15.8615 16.9889C16.4397 17.1369 16.9199 17.3989 17.351 17.8018C17.649 18.0803 18.0521 18.6002 18.0521 18.706C18.0521 18.7739 17.2998 19.2216 16.9114 19.3848C15.4255 20.0092 13.6299 19.8498 12.2861 18.9741C12.086 18.8437 11.9222 18.723 11.9222 18.706C11.9222 18.6002 12.3254 18.0803 12.6233 17.8018C13.4818 16.9996 14.7038 16.6928 15.8615 16.9889ZM8.89103 22.8087C8.65742 22.9338 8.57733 23.0611 8.57529 23.3106C8.5716 23.7503 9.12539 24.0308 9.46077 23.7591C9.98959 23.3307 9.48569 22.4901 8.89103 22.8087Z" fill="black"/>
</g>
<defs>
<filter id="filter0_d_0_1" x="-55.5293" y="-39.1756" width="299.407" height="274.034" filterUnits="userSpaceOnUse" color-interpolation-filters="sRGB">
<feFlood flood-opacity="0" result="BackgroundImageFix"/>
<feColorMatrix in="SourceAlpha" type="matrix" values="0 0 0 0 0 0 0 0 0 0 0 0 0 0 0 0 0 0 127 0" result="hardAlpha"/>
<feMorphology radius="8.45784" operator="erode" in="SourceAlpha" result="effect1_dropShadow_0_1"/>
<feOffset dy="11.841"/>
<feGaussianBlur stdDeviation="14.3783"/>
<feComposite in2="hardAlpha" operator="out"/>
<feColorMatrix type="matrix" values="0 0 0 0 0 0 0 0 0 0 0 0 0 0 0 0 0 0 0.1 0"/>
<feBlend mode="normal" in2="BackgroundImageFix" result="effect1_dropShadow_0_1"/>
<feBlend mode="normal" in="SourceGraphic" in2="effect1_dropShadow_0_1" result="shape"/>
</filter>
<filter id="filter1_d_0_1" x="-55.5293" y="-39.1756" width="299.407" height="274.034" filterUnits="userSpaceOnUse" color-interpolation-filters="sRGB">
<feFlood flood-opacity="0" result="BackgroundImageFix"/>
<feColorMatrix in="SourceAlpha" type="matrix" values="0 0 0 0 0 0 0 0 0 0 0 0 0 0 0 0 0 0 127 0" result="hardAlpha"/>
<feMorphology radius="8.45784" operator="erode" in="SourceAlpha" result="effect1_dropShadow_0_1"/>
<feOffset dy="11.841"/>
<feGaussianBlur stdDeviation="14.3783"/>
<feComposite in2="hardAlpha" operator="out"/>
<feColorMatrix type="matrix" values="0 0 0 0 0 0 0 0 0 0 0 0 0 0 0 0 0 0 0.1 0"/>
<feBlend mode="normal" in2="BackgroundImageFix" result="effect1_dropShadow_0_1"/>
<feBlend mode="normal" in="SourceGraphic" in2="effect1_dropShadow_0_1" result="shape"/>
</filter>
<clipPath id="clip0_0_1">
<rect width="1440" height="1923" fill="white" transform="translate(-820 -501)"/>
</clipPath>
</defs>
</svg>
